<svg width="64" height="64" viewBox="0 0 64 64" fill="none" xmlns="http://www.w3.org/2000/svg">
<rect width="64" height="64" rx="32" fill="white"/>
<g filter="url(#filter0_d_401_7)">
<path d="M25.4034 25.0909C25.2244 23.5795 24.4986 22.4062 23.2259 21.571C21.9531 20.7358 20.392 20.3182 18.5426 20.3182C17.1903 20.3182 16.0071 20.5369 14.9929 20.9744C13.9886 21.4119 13.2031 22.0135 12.6364 22.7791C12.0795 23.5447 11.8011 24.4148 11.8011 25.3892C11.8011 26.2045 11.995 26.9055 12.3828 27.4922C12.7805 28.0689 13.2876 28.5511 13.9041 28.9389C14.5206 29.3168 15.1669 29.63 15.843 29.8786C16.5192 30.1172 17.1406 30.3111 17.7074 30.4602L20.8097 31.2955C21.6051 31.5043 22.4901 31.7926 23.4645 32.1605C24.4489 32.5284 25.3885 33.0305 26.2834 33.6669C27.1882 34.2933 27.9339 35.0987 28.5206 36.0831C29.1072 37.0675 29.4006 38.2756 29.4006 39.7074C29.4006 41.358 28.968 42.8494 28.103 44.1818C27.2479 45.5142 25.995 46.5732 24.3445 47.3587C22.7038 48.1442 20.7102 48.5369 18.3636 48.5369C16.1761 48.5369 14.282 48.1839 12.6811 47.478C11.0902 46.772 9.83736 45.7876 8.92259 44.5249C8.01776 43.2621 7.50568 41.7955 7.38636 40.125H11.2045C11.304 41.2784 11.6918 42.233 12.3679 42.9886C13.054 43.7344 13.919 44.2912 14.9631 44.6591C16.017 45.017 17.1506 45.196 18.3636 45.196C19.7756 45.196 21.0433 44.9673 22.1669 44.5099C23.2905 44.0426 24.1804 43.3963 24.8366 42.571C25.4929 41.7358 25.821 40.7614 25.821 39.6477C25.821 38.6335 25.5376 37.8082 24.9709 37.1719C24.4041 36.5355 23.6584 36.0185 22.7337 35.6207C21.8089 35.223 20.8097 34.875 19.7358 34.5767L15.9773 33.5028C13.5909 32.8168 11.7017 31.8374 10.3097 30.5646C8.91761 29.2919 8.22159 27.6264 8.22159 25.5682C8.22159 23.858 8.68395 22.3665 9.60866 21.0938C10.5433 19.8111 11.7962 18.8168 13.3672 18.1108C14.9482 17.3949 16.7131 17.0369 18.6619 17.0369C20.6307 17.0369 22.3807 17.3899 23.9119 18.0959C25.4432 18.7919 26.6563 19.7464 27.5511 20.9595C28.456 22.1726 28.9332 23.5497 28.983 25.0909H25.4034ZM33.8116 20.7358V17.4545H56.7207V20.7358H47.1156V48H43.4167V20.7358H33.8116Z" fill="black"/>
</g>
<defs>
<filter id="filter0_d_401_7" x="3.38635" y="17.037" width="57.3344" height="39.5" filterUnits="userSpaceOnUse" color-interpolation-filters="sRGB">
<feFlood flood-opacity="0" result="BackgroundImageFix"/>
<feColorMatrix in="SourceAlpha" type="matrix" values="0 0 0 0 0 0 0 0 0 0 0 0 0 0 0 0 0 0 127 0" result="hardAlpha"/>
<feOffset dy="4"/>
<feGaussianBlur stdDeviation="2"/>
<feComposite in2="hardAlpha" operator="out"/>
<feColorMatrix type="matrix" values="0 0 0 0 0 0 0 0 0 0 0 0 0 0 0 0 0 0 0.25 0"/>
<feBlend mode="normal" in2="BackgroundImageFix" result="effect1_dropShadow_401_7"/>
<feBlend mode="normal" in="SourceGraphic" in2="effect1_dropShadow_401_7" result="shape"/>
</filter>
</defs>
</svg>
